<svg xmlns="http://www.w3.org/2000/svg" viewBox="-15 -25 45 45" width="500" height="500" shape-rendering="crispEdges">
<defs><style>
#arm-L { transform-origin: 2.25px 9.5px; } #arm-R { transform-origin: 13.75px 9.5px; }


.breathe { transform-origin: 7.5px 15px; animation: breathe 3.4s infinite ease-in-out; }
@keyframes breathe { 0%,100% { transform: scale(1,1); } 50% { transform: scale(1.015,0.985); } }
.pupils { transform-origin: 7.5px 4.8px; animation: blink 4.6s infinite ease-in-out; }
@keyframes blink { 0%,8%,100% { transform: scaleY(1); } 4% { transform: scaleY(0.1); } }
#eyes-js, #body-js, #shadow-js { transition: transform 0.2s ease-out; }
#shadow-js { transform-origin: 7.5px 15px; }

#arm-L { animation: pointL 1.6s infinite ease-in-out; } #arm-R { animation: pointR 1.6s infinite ease-in-out; }
@keyframes pointL { 0%,40%,100% { transform: rotate(0deg); } 15%,30% { transform: rotate(95deg); } }
@keyframes pointR { 0%,50%,100% { transform: rotate(0deg); } 65%,80% { transform: rotate(-95deg); } }
.pupils { animation: look 1.6s infinite ease-in-out; }
@keyframes look { 0%,40%,100% { transform: translateX(-0.5px); } 50%,90% { transform: translateX(0.5px); } }
.tag { animation: tagpop 1.6s infinite; } .tag2 { animation: tagpop 1.6s 0.8s infinite both; }
@keyframes tagpop { 0%,10%,45%,100% { opacity: 0; } 15%,35% { opacity: 1; } }

</style></defs>
<g id="shadow-js"><rect x="2.5" y="15.3" width="11" height="0.9" fill="#000000" opacity="0.35"/></g>
<g id="leg-L"><rect x="4" y="13.2" width="3" height="1.1" fill="#3C75BE"/><rect x="4.5" y="14.2" width="2" height="0.6" fill="#F3C69B"/><rect x="3.8" y="14.8" width="3.4" height="0.6" fill="#684E3E"/></g><g id="leg-R"><rect x="9" y="13.2" width="3" height="1.1" fill="#3C75BE"/><rect x="9.5" y="14.2" width="2" height="0.6" fill="#F3C69B"/><rect x="8.8" y="14.8" width="3.4" height="0.6" fill="#684E3E"/></g>
<g id="body-js"><g class="breathe">
<g id="arm-L"><rect x="1.5" y="9.3" width="1.5" height="4" fill="#F3C69B"/><rect x="1.3" y="12.7" width="1.9" height="1.6" fill="#F3C69B"/></g>
<g id="arm-R"><rect x="13" y="9.3" width="1.5" height="4" fill="#F3C69B"/><rect x="12.8" y="12.7" width="1.9" height="1.6" fill="#F3C69B"/></g>
<rect x="3" y="9" width="10" height="4.5" fill="#F3C69B"/><rect x="3" y="9" width="3" height="4.5" fill="#DF3444"/><rect x="10" y="9" width="3" height="4.5" fill="#DF3444"/><rect x="10.8" y="10" width="0.5" height="0.5" fill="#F4CE67"/><rect x="10.8" y="12" width="0.5" height="0.5" fill="#F4CE67"/>

<g id="head">
<polygon points="2.8,.3 12.5,.3 13.8,2.5 13.2,6.5 11,8.7 8,9.2 5,8.7 2.5,6.3 1.8,3" fill="#F3C69B" /><ellipse cx="2.1" cy="4.5" rx=".9" ry="1.5" fill="#E7B88F"/><ellipse cx="13.8" cy="4.5" rx=".9" ry="1.5" fill="#E7B88F"/>
<polygon points="2,0 3,-3 12,-3 14,0 13,5 12,3 11,4 10,2 8,3 7,1 5,3 4,2 3,5" fill="#202737" /><polygon points="2,-1 2,-4 4,-4 4,-5 12,-5 12,-4 14,-4 14,-1" fill="#EFC571" /><rect x="2" y="-2" width="12" height="1.3" fill="#D84540"/><rect x="-1" y="-0.8" width="18" height="1.2" fill="#DCAA58"/><rect x="1" y="-0.8" width="14" height="0.4" fill="#FFE4A0"/>
<ellipse cx="5.1" cy="4.35" rx="1.7" ry="1.65" fill="white" stroke="#4C3C30" stroke-width=".2"/><ellipse cx="10.8" cy="4.35" rx="1.7" ry="1.65" fill="white" stroke="#4C3C30" stroke-width=".2"/><g ><g class="pupils"><ellipse cx="5.1" cy="4.4" rx=".48" ry=".75" fill="#25262D"/><ellipse cx="10.8" cy="4.4" rx=".48" ry=".75" fill="#25262D"/></g></g><path d="M3.7 2.5 Q5 2 6.2 2.5 M9.5 2.5 Q10.8 2 12 2.5 M10.4 6 H12.6 M11 5.6 V6.4 M12 5.6 V6.4 M7.6 5.5 L7.1 6.2 L8 6.2" stroke="#6F4C39" stroke-width=".24" fill="none"/><path d="M4.9 6.8 Q8 7.7 11.1 6.8 L10.2 8.2 Q8 9.4 5.8 8.2 Z" fill="#FFF5E0" stroke="#6F4C39" stroke-width=".24"/>
</g>

</g></g>
<g class="tag"><rect x="-9.000" y="2.500" width="0.500" height="0.500" fill="#1E2A47"/>
<rect x="-8.500" y="2.500" width="0.500" height="0.500" fill="#1E2A47"/>
<rect x="-9.500" y="3.000" width="0.500" height="0.500" fill="#1E2A47"/>
<rect x="-9.500" y="3.500" width="0.500" height="0.500" fill="#1E2A47"/>
<rect x="-8.500" y="3.500" width="0.500" height="0.500" fill="#1E2A47"/>
<rect x="-9.500" y="4.000" width="0.500" height="0.500" fill="#1E2A47"/>
<rect x="-8.500" y="4.000" width="0.500" height="0.500" fill="#1E2A47"/>
<rect x="-9.000" y="4.500" width="0.500" height="0.500" fill="#1E2A47"/>
<rect x="-8.500" y="4.500" width="0.500" height="0.500" fill="#1E2A47"/>
<rect x="-7.000" y="2.500" width="0.500" height="0.500" fill="#1E2A47"/>
<rect x="-7.500" y="3.000" width="0.500" height="0.500" fill="#1E2A47"/>
<rect x="-6.500" y="3.000" width="0.500" height="0.500" fill="#1E2A47"/>
<rect x="-7.500" y="3.500" width="0.500" height="0.500" fill="#1E2A47"/>
<rect x="-6.500" y="3.500" width="0.500" height="0.500" fill="#1E2A47"/>
<rect x="-7.500" y="4.000" width="0.500" height="0.500" fill="#1E2A47"/>
<rect x="-6.500" y="4.000" width="0.500" height="0.500" fill="#1E2A47"/>
<rect x="-7.000" y="4.500" width="0.500" height="0.500" fill="#1E2A47"/>
<rect x="-5.000" y="2.500" width="0.500" height="0.500" fill="#1E2A47"/>
<rect x="-5.000" y="3.000" width="0.500" height="0.500" fill="#1E2A47"/>
<rect x="-5.000" y="3.500" width="0.500" height="0.500" fill="#1E2A47"/>
<rect x="-5.000" y="4.500" width="0.500" height="0.500" fill="#1E2A47"/></g><g class="tag2"><rect x="19.500" y="2.500" width="0.500" height="0.500" fill="#1E2A47"/>
<rect x="20.000" y="2.500" width="0.500" height="0.500" fill="#1E2A47"/>
<rect x="19.000" y="3.000" width="0.500" height="0.500" fill="#1E2A47"/>
<rect x="19.000" y="3.500" width="0.500" height="0.500" fill="#1E2A47"/>
<rect x="20.000" y="3.500" width="0.500" height="0.500" fill="#1E2A47"/>
<rect x="19.000" y="4.000" width="0.500" height="0.500" fill="#1E2A47"/>
<rect x="20.000" y="4.000" width="0.500" height="0.500" fill="#1E2A47"/>
<rect x="19.500" y="4.500" width="0.500" height="0.500" fill="#1E2A47"/>
<rect x="20.000" y="4.500" width="0.500" height="0.500" fill="#1E2A47"/>
<rect x="21.500" y="2.500" width="0.500" height="0.500" fill="#1E2A47"/>
<rect x="21.000" y="3.000" width="0.500" height="0.500" fill="#1E2A47"/>
<rect x="22.000" y="3.000" width="0.500" height="0.500" fill="#1E2A47"/>
<rect x="21.000" y="3.500" width="0.500" height="0.500" fill="#1E2A47"/>
<rect x="22.000" y="3.500" width="0.500" height="0.500" fill="#1E2A47"/>
<rect x="21.000" y="4.000" width="0.500" height="0.500" fill="#1E2A47"/>
<rect x="22.000" y="4.000" width="0.500" height="0.500" fill="#1E2A47"/>
<rect x="21.500" y="4.500" width="0.500" height="0.500" fill="#1E2A47"/>
<rect x="23.500" y="2.500" width="0.500" height="0.500" fill="#1E2A47"/>
<rect x="23.500" y="3.000" width="0.500" height="0.500" fill="#1E2A47"/>
<rect x="23.500" y="3.500" width="0.500" height="0.500" fill="#1E2A47"/>
<rect x="23.500" y="4.500" width="0.500" height="0.500" fill="#1E2A47"/></g>
</svg>
