<svg xmlns="http://www.w3.org/2000/svg" viewBox="-15 -25 45 45" width="500" height="500" shape-rendering="crispEdges">
<defs><style>
#arm-L { transform-origin: 2.25px 9.5px; } #arm-R { transform-origin: 13.75px 9.5px; }


.bounce { transform-origin: 7.5px 15px; animation: bounce 0.7s infinite ease-in-out; }
@keyframes bounce { 0%,100% { transform: translateY(0) scale(1,1); } 50% { transform: translateY(-1.4px) scale(1.02,0.98); } }
#shadow-js { transform-origin: 7.5px 15px; animation: sh 0.7s infinite ease-in-out; }
@keyframes sh { 0%,100% { transform: scaleX(1); opacity: 0.35; } 50% { transform: scaleX(0.85); opacity: 0.25; } }
.spark rect { animation: twinkle 1.2s infinite step-end both; } .spark rect:nth-child(2n) { animation-delay: 0.4s; } .spark rect:nth-child(3n) { animation-delay: 0.8s; }
@keyframes twinkle { 0%,100% { opacity: 1; } 50% { opacity: 0; } }
.rocket { animation: launch 2.2s infinite ease-in both; }
@keyframes launch { 0% { transform: translateY(6px); opacity: 0; } 15% { opacity: 1; } 85% { opacity: 1; } 100% { transform: translateY(-22px); opacity: 0; } }
.flame { transform-origin: 17.9px 8.5px; animation: flick 0.12s infinite alternate; }
@keyframes flick { from { transform: scaleY(1); } to { transform: scaleY(1.5); } }

.bubble { transform-origin: 7.5px -6px; animation: pop 0.45s ease-out both; }
@keyframes pop { 0% { transform: scale(0); opacity: 0; } 70% { transform: scale(1.08); opacity: 1; } 100% { transform: scale(1); opacity: 1; } }
#arm-L { animation: waveL 0.35s infinite alternate ease-in-out; }
@keyframes waveL { from { transform: rotate(150deg); } to { transform: rotate(170deg); } }
#arm-R { transform: rotate(-165deg); }
.gpu-up { transform-origin: 14.5px 4px; animation: tilt 0.7s infinite alternate ease-in-out; }
@keyframes tilt { from { transform: rotate(-5deg); } to { transform: rotate(5deg); } }

</style></defs>
<g id="shadow-js"><rect x="2.5" y="15.3" width="11" height="0.9" fill="#000000" opacity="0.35"/></g>
<g id="leg-L"><rect x="4" y="13" width="2.8" height="1.8" fill="#256EBB"/><rect x="3.5" y="14.3" width="3.8" height="1.2" fill="#D94343"/><rect x="4.3" y="14.3" width="0.9" height="1.2" fill="#FFFFFF"/></g><g id="leg-R"><rect x="9" y="13" width="2.8" height="1.8" fill="#256EBB"/><rect x="8.5" y="14.3" width="3.8" height="1.2" fill="#D94343"/><rect x="9.3" y="14.3" width="0.9" height="1.2" fill="#FFFFFF"/></g>
<g id="body-js"><g class="bounce">
<g id="arm-L"><rect x="0.9" y="9" width="1.7" height="3.8" fill="#256EBB"/><rect x="0.6" y="12" width="2.3" height="1.7" fill="#FFFFFF"/></g>
<g id="arm-R"><rect x="13.3" y="9" width="1.7" height="3.8" fill="#256EBB"/><rect x="13" y="12" width="2.3" height="1.7" fill="#FFFFFF"/></g>
<polygon points="5,8 11,8 12,11 10,14 6,14 4,11" fill="#256EBB" /><ellipse cx="8" cy="10.8" rx="2.3" ry="2.8" fill="#EDD0A4"/>

<g id="head">
<polygon points="3,-1 2,-5 6,-3 10,-5 15,-4 13,-2 18,-1 15,2 19,3 15,5 17,7 13,8 10,9 4,8 1,5 -2,4 1,2 -2,0" fill="#256EBB" /><polygon points="3,0 3,-3 5,-1" fill="#DDB68E" /><polygon points="3,4 12,3.5 15,5 14,8 11,9 5,9 2,7" fill="#ECCD9F" />

<polygon points="3,3 3,0 5,-1 8,1 10,-1 13,0 13,4 9,5 7,4" fill="#FFFFFF" /><g id="eyes-js"><g class="pupils"><path d="M5.5 2.6 Q6.3 1.7 7.1 2.6" stroke="#1E2A47" stroke-width=".4" fill="none"/><path d="M9.8 2.6 Q10.6 1.7 11.4 2.6" stroke="#1E2A47" stroke-width=".4" fill="none"/></g></g><ellipse cx="8" cy="4.8" rx="1.2" ry=".7" fill="#203041"/><path d="M8 7.2 Q10 8 12 6.6" stroke="#81684F" stroke-width=".35" fill="none"/>
</g>
<g class="gpu-up"><g class="" transform="translate(11.6 1.2)"><circle cx="3" cy="2.8" r="2.5" fill="none" stroke="#EFCA4F" stroke-width="1.1"/></g></g>
</g></g>
<g class="spark"><rect x="-4" y="2" width="0.9" height="0.9" fill="#E6BB3C"/><rect x="-6" y="6" width="0.9" height="0.9" fill="#FFFFFF"/><rect x="-2" y="-3" width="0.9" height="0.9" fill="#256EBB"/><rect x="18" y="3" width="0.9" height="0.9" fill="#E6BB3C"/><rect x="20" y="7" width="0.9" height="0.9" fill="#FFFFFF"/><rect x="16" y="-2" width="0.9" height="0.9" fill="#256EBB"/><rect x="-5" y="11" width="0.9" height="0.9" fill="#E6BB3C"/><rect x="19" y="12" width="0.9" height="0.9" fill="#FFFFFF"/></g><g class="bubble">
<rect x="-3.325" y="-12.950" width="21.650" height="5.150" rx="1" ry="1" fill="#FFFFFF" stroke="#1E2A47" stroke-width="0.5"/>
<polygon points="6.200,-8.100 8.800,-8.100 7.500,-5.600" fill="#FFFFFF" stroke="#1E2A47" stroke-width="0.5" stroke-linejoin="round"/>
<rect x="6.300" y="-8.500" width="2.4" height="0.8" fill="#FFFFFF"/>
<rect x="-1.575" y="-11.750" width="0.550" height="0.550" fill="#1E2A47"/>
<rect x="-1.025" y="-11.750" width="0.550" height="0.550" fill="#1E2A47"/>
<rect x="-2.125" y="-11.200" width="0.550" height="0.550" fill="#1E2A47"/>
<rect x="-2.125" y="-10.650" width="0.550" height="0.550" fill="#1E2A47"/>
<rect x="-1.025" y="-10.650" width="0.550" height="0.550" fill="#1E2A47"/>
<rect x="-2.125" y="-10.100" width="0.550" height="0.550" fill="#1E2A47"/>
<rect x="-1.025" y="-10.100" width="0.550" height="0.550" fill="#1E2A47"/>
<rect x="-1.575" y="-9.550" width="0.550" height="0.550" fill="#1E2A47"/>
<rect x="-1.025" y="-9.550" width="0.550" height="0.550" fill="#1E2A47"/>
<rect x="0.625" y="-11.750" width="0.550" height="0.550" fill="#1E2A47"/>
<rect x="0.075" y="-11.200" width="0.550" height="0.550" fill="#1E2A47"/>
<rect x="1.175" y="-11.200" width="0.550" height="0.550" fill="#1E2A47"/>
<rect x="0.075" y="-10.650" width="0.550" height="0.550" fill="#1E2A47"/>
<rect x="1.175" y="-10.650" width="0.550" height="0.550" fill="#1E2A47"/>
<rect x="0.075" y="-10.100" width="0.550" height="0.550" fill="#1E2A47"/>
<rect x="1.175" y="-10.100" width="0.550" height="0.550" fill="#1E2A47"/>
<rect x="0.625" y="-9.550" width="0.550" height="0.550" fill="#1E2A47"/>
<rect x="2.275" y="-11.750" width="0.550" height="0.550" fill="#1E2A47"/>
<rect x="2.825" y="-11.750" width="0.550" height="0.550" fill="#1E2A47"/>
<rect x="3.375" y="-11.750" width="0.550" height="0.550" fill="#1E2A47"/>
<rect x="2.825" y="-11.200" width="0.550" height="0.550" fill="#1E2A47"/>
<rect x="2.825" y="-10.650" width="0.550" height="0.550" fill="#1E2A47"/>
<rect x="2.825" y="-10.100" width="0.550" height="0.550" fill="#1E2A47"/>
<rect x="2.825" y="-9.550" width="0.550" height="0.550" fill="#1E2A47"/>
<rect x="4.475" y="-11.750" width="0.550" height="0.550" fill="#1E2A47"/>
<rect x="5.025" y="-11.750" width="0.550" height="0.550" fill="#1E2A47"/>
<rect x="5.575" y="-11.750" width="0.550" height="0.550" fill="#1E2A47"/>
<rect x="5.025" y="-11.200" width="0.550" height="0.550" fill="#1E2A47"/>
<rect x="5.025" y="-10.650" width="0.550" height="0.550" fill="#1E2A47"/>
<rect x="5.025" y="-10.100" width="0.550" height="0.550" fill="#1E2A47"/>
<rect x="5.025" y="-9.550" width="0.550" height="0.550" fill="#1E2A47"/>
<rect x="7.225" y="-11.750" width="0.550" height="0.550" fill="#1E2A47"/>
<rect x="6.675" y="-11.200" width="0.550" height="0.550" fill="#1E2A47"/>
<rect x="7.775" y="-11.200" width="0.550" height="0.550" fill="#1E2A47"/>
<rect x="6.675" y="-10.650" width="0.550" height="0.550" fill="#1E2A47"/>
<rect x="7.225" y="-10.650" width="0.550" height="0.550" fill="#1E2A47"/>
<rect x="7.775" y="-10.650" width="0.550" height="0.550" fill="#1E2A47"/>
<rect x="6.675" y="-10.100" width="0.550" height="0.550" fill="#1E2A47"/>
<rect x="7.775" y="-10.100" width="0.550" height="0.550" fill="#1E2A47"/>
<rect x="6.675" y="-9.550" width="0.550" height="0.550" fill="#1E2A47"/>
<rect x="7.775" y="-9.550" width="0.550" height="0.550" fill="#1E2A47"/>
<rect x="11.625" y="-11.750" width="0.550" height="0.550" fill="#1E2A47"/>
<rect x="12.175" y="-11.750" width="0.550" height="0.550" fill="#1E2A47"/>
<rect x="11.075" y="-11.200" width="0.550" height="0.550" fill="#1E2A47"/>
<rect x="11.075" y="-10.650" width="0.550" height="0.550" fill="#1E2A47"/>
<rect x="12.175" y="-10.650" width="0.550" height="0.550" fill="#1E2A47"/>
<rect x="11.075" y="-10.100" width="0.550" height="0.550" fill="#1E2A47"/>
<rect x="12.175" y="-10.100" width="0.550" height="0.550" fill="#1E2A47"/>
<rect x="11.625" y="-9.550" width="0.550" height="0.550" fill="#1E2A47"/>
<rect x="12.175" y="-9.550" width="0.550" height="0.550" fill="#1E2A47"/>
<rect x="13.825" y="-11.750" width="0.550" height="0.550" fill="#1E2A47"/>
<rect x="13.275" y="-11.200" width="0.550" height="0.550" fill="#1E2A47"/>
<rect x="14.375" y="-11.200" width="0.550" height="0.550" fill="#1E2A47"/>
<rect x="13.275" y="-10.650" width="0.550" height="0.550" fill="#1E2A47"/>
<rect x="14.375" y="-10.650" width="0.550" height="0.550" fill="#1E2A47"/>
<rect x="13.275" y="-10.100" width="0.550" height="0.550" fill="#1E2A47"/>
<rect x="14.375" y="-10.100" width="0.550" height="0.550" fill="#1E2A47"/>
<rect x="13.825" y="-9.550" width="0.550" height="0.550" fill="#1E2A47"/>
<rect x="16.025" y="-11.750" width="0.550" height="0.550" fill="#1E2A47"/>
<rect x="16.025" y="-11.200" width="0.550" height="0.550" fill="#1E2A47"/>
<rect x="16.025" y="-10.650" width="0.550" height="0.550" fill="#1E2A47"/>
<rect x="16.025" y="-9.550" width="0.550" height="0.550" fill="#1E2A47"/>
</g>
</svg>
