<svg xmlns="http://www.w3.org/2000/svg" viewBox="-15 -25 45 45" width="500" height="500" shape-rendering="crispEdges">
<defs><style>
#arm-L { transform-origin: 2.25px 9.5px; } #arm-R { transform-origin: 13.75px 9.5px; }


.jump { transform-origin: 7.5px 15px; animation: jump 0.8s ease-out both; }
@keyframes jump { 0% { transform: translateY(0); } 40% { transform: translateY(-4px); } 100% { transform: translateY(0); } }
#shadow-js { transform-origin: 7.5px 15px; animation: sh 0.8s ease-out both; }
@keyframes sh { 0%,100% { transform: scaleX(1); } 40% { transform: scaleX(0.6); opacity: 0.2; } }
#arm-L { animation: up 0.8s both; } #arm-R { animation: upR 0.8s both; }
@keyframes up { 0% { transform: rotate(0); } 40%,100% { transform: rotate(160deg); } }
@keyframes upR { 0% { transform: rotate(0); } 40%,100% { transform: rotate(-160deg); } }
.bubble { transform-origin: 7.5px -4px; animation: pop 0.5s 0.3s ease-out both; }
@keyframes pop { 0% { transform: scale(0); opacity: 0; } 100% { transform: scale(1); opacity: 1; } }

</style></defs>
<polygon points="12,12 17,9 14,7 19,3 21,5 18,7 20,9 15,13" fill="#EABF39" /><g id="shadow-js"><rect x="2.5" y="15.3" width="11" height="0.9" fill="#000000" opacity="0.35"/></g>
<g id="leg-L"><rect x="4" y="13" width="2.8" height="1.8" fill="#F3CB3C"/><rect x="3.5" y="14.3" width="3.8" height="1.2" fill="#F3CB3C"/></g><g id="leg-R"><rect x="9" y="13" width="2.8" height="1.8" fill="#F3CB3C"/><rect x="8.5" y="14.3" width="3.8" height="1.2" fill="#F3CB3C"/></g>
<g id="body-js"><g class="jump">
<g id="arm-L"><rect x="0.9" y="9" width="1.7" height="3.8" fill="#F3CB3C"/><rect x="0.6" y="12" width="2.3" height="1.7" fill="#F3CB3C"/></g>
<g id="arm-R"><rect x="13.3" y="9" width="1.7" height="3.8" fill="#F3CB3C"/><rect x="13" y="12" width="2.3" height="1.7" fill="#F3CB3C"/></g>
<polygon points="3,8 13,8 14,11 12,14 4,14 2,11" fill="#F3CB3C" /><rect x="4" y="10.6" width="1.2" height="2" fill="#FFE87B"/>

<g id="head">
<polygon points="3,1 0,-6 1,-9 3,-7 6,0" fill="#F3CB3C" /><polygon points="0,-6 1,-9 3,-7 3.7,-4.8 1.4,-3.8" fill="#1E2A47" /><polygon points="10,0 14,-7 17,-8 16,-4 13,2" fill="#F3CB3C" /><polygon points="14,-7 17,-8 16,-4 13.3,-4.3" fill="#1E2A47" /><polygon points="3,-1 12,-1 14,1 15,4 14,7 12,9 4,9 1,7 0,4 1,1" fill="#F3CB3C" /><rect x="2.5" y="5.8" width="2.2" height="1.6" fill="#E96542"/><rect x="11.2" y="5.8" width="2.2" height="1.6" fill="#E96542"/>

<g ><g class="pupils"><path d="M3.8 3.5 Q4.6 2.6 5.4 3.5" stroke="#1E2A47" stroke-width=".4" fill="none"/><path d="M10.4 3.5 Q11.2 2.6 12.0 3.5" stroke="#1E2A47" stroke-width=".4" fill="none"/></g></g><polygon points="7.2,4.4 8.8,4.4 8,5" fill="#1E2A47" /><path d="M6.4 6 Q7.1 7.3 8 6.3 Q8.9 7.3 9.6 6" fill="none" stroke="#795638" stroke-width=".4"/>
</g>

</g></g>
<g class="bubble">
<rect x="0.600" y="-12.800" width="13.800" height="5.400" rx="1" ry="1" fill="#FFFFFF" stroke="#1E2A47" stroke-width="0.5"/>
<polygon points="6.200,-7.700 8.800,-7.700 7.500,-5.200" fill="#FFFFFF" stroke="#1E2A47" stroke-width="0.5" stroke-linejoin="round"/>
<rect x="6.300" y="-8.100" width="2.4" height="0.8" fill="#FFFFFF"/>
<rect x="1.800" y="-11.600" width="0.600" height="0.600" fill="#1E2A47"/>
<rect x="2.400" y="-11.600" width="0.600" height="0.600" fill="#1E2A47"/>
<rect x="1.800" y="-11.000" width="0.600" height="0.600" fill="#1E2A47"/>
<rect x="3.000" y="-11.000" width="0.600" height="0.600" fill="#1E2A47"/>
<rect x="1.800" y="-10.400" width="0.600" height="0.600" fill="#1E2A47"/>
<rect x="2.400" y="-10.400" width="0.600" height="0.600" fill="#1E2A47"/>
<rect x="1.800" y="-9.800" width="0.600" height="0.600" fill="#1E2A47"/>
<rect x="1.800" y="-9.200" width="0.600" height="0.600" fill="#1E2A47"/>
<rect x="4.200" y="-11.600" width="0.600" height="0.600" fill="#1E2A47"/>
<rect x="4.800" y="-11.600" width="0.600" height="0.600" fill="#1E2A47"/>
<rect x="5.400" y="-11.600" width="0.600" height="0.600" fill="#1E2A47"/>
<rect x="4.800" y="-11.000" width="0.600" height="0.600" fill="#1E2A47"/>
<rect x="4.800" y="-10.400" width="0.600" height="0.600" fill="#1E2A47"/>
<rect x="4.800" y="-9.800" width="0.600" height="0.600" fill="#1E2A47"/>
<rect x="4.200" y="-9.200" width="0.600" height="0.600" fill="#1E2A47"/>
<rect x="4.800" y="-9.200" width="0.600" height="0.600" fill="#1E2A47"/>
<rect x="5.400" y="-9.200" width="0.600" height="0.600" fill="#1E2A47"/>
<rect x="6.600" y="-11.600" width="0.600" height="0.600" fill="#1E2A47"/>
<rect x="7.800" y="-11.600" width="0.600" height="0.600" fill="#1E2A47"/>
<rect x="6.600" y="-11.000" width="0.600" height="0.600" fill="#1E2A47"/>
<rect x="7.800" y="-11.000" width="0.600" height="0.600" fill="#1E2A47"/>
<rect x="6.600" y="-10.400" width="0.600" height="0.600" fill="#1E2A47"/>
<rect x="7.200" y="-10.400" width="0.600" height="0.600" fill="#1E2A47"/>
<rect x="6.600" y="-9.800" width="0.600" height="0.600" fill="#1E2A47"/>
<rect x="7.800" y="-9.800" width="0.600" height="0.600" fill="#1E2A47"/>
<rect x="6.600" y="-9.200" width="0.600" height="0.600" fill="#1E2A47"/>
<rect x="7.800" y="-9.200" width="0.600" height="0.600" fill="#1E2A47"/>
<rect x="9.600" y="-11.600" width="0.600" height="0.600" fill="#1E2A47"/>
<rect x="9.000" y="-11.000" width="0.600" height="0.600" fill="#1E2A47"/>
<rect x="10.200" y="-11.000" width="0.600" height="0.600" fill="#1E2A47"/>
<rect x="9.000" y="-10.400" width="0.600" height="0.600" fill="#1E2A47"/>
<rect x="9.600" y="-10.400" width="0.600" height="0.600" fill="#1E2A47"/>
<rect x="10.200" y="-10.400" width="0.600" height="0.600" fill="#1E2A47"/>
<rect x="9.000" y="-9.800" width="0.600" height="0.600" fill="#1E2A47"/>
<rect x="10.200" y="-9.800" width="0.600" height="0.600" fill="#1E2A47"/>
<rect x="9.000" y="-9.200" width="0.600" height="0.600" fill="#1E2A47"/>
<rect x="10.200" y="-9.200" width="0.600" height="0.600" fill="#1E2A47"/>
<rect x="12.000" y="-11.600" width="0.600" height="0.600" fill="#1E2A47"/>
<rect x="12.000" y="-11.000" width="0.600" height="0.600" fill="#1E2A47"/>
<rect x="12.000" y="-10.400" width="0.600" height="0.600" fill="#1E2A47"/>
<rect x="12.000" y="-9.200" width="0.600" height="0.600" fill="#1E2A47"/>
</g>
</svg>
