<svg xmlns="http://www.w3.org/2000/svg" viewBox="-15 -25 45 45" width="500" height="500" shape-rendering="crispEdges">
<defs><style>
#arm-L { transform-origin: 2.25px 9.5px; } #arm-R { transform-origin: 13.75px 9.5px; }


.breathe { transform-origin: 7.5px 15px; animation: breathe 3.4s infinite ease-in-out; }
@keyframes breathe { 0%,100% { transform: scale(1,1); } 50% { transform: scale(1.015,0.985); } }
.pupils { transform-origin: 7.5px 4.8px; animation: blink 4.6s infinite ease-in-out; }
@keyframes blink { 0%,8%,100% { transform: scaleY(1); } 4% { transform: scaleY(0.1); } }
#eyes-js, #body-js, #shadow-js { transition: transform 0.2s ease-out; }
#shadow-js { transform-origin: 7.5px 15px; }

</style></defs>
<g id="shadow-js"><rect x="2.5" y="15.3" width="11" height="0.9" fill="#000000" opacity="0.35"/></g>
<g id="leg-L"><rect x="4" y="13.4" width="3" height="1.4" fill="#1E1E1E"/><rect x="3.6" y="14.6" width="3.6" height="0.8" fill="#111111"/></g><g id="leg-R"><rect x="9" y="13.4" width="3" height="1.4" fill="#1E1E1E"/><rect x="8.8" y="14.6" width="3.6" height="0.8" fill="#111111"/></g>
<g id="body-js"><g class="breathe">
<g id="arm-L">
<rect x="1.5" y="9.3" width="1.5" height="4" fill="#141414"/>
<rect x="1.6" y="13.1" width="1.3" height="1.1" fill="#E8BC8E"/>
</g>
<g id="arm-R">
<rect x="13" y="9.3" width="1.5" height="4" fill="#141414"/>
<rect x="13.1" y="13.1" width="1.3" height="1.1" fill="#E8BC8E"/>
</g>
<rect x="3" y="9" width="10" height="4.6" fill="#141414"/>
<rect x="3" y="9" width="10" height="0.7" fill="#2B2B2B"/>
<rect x="7.75" y="9" width="0.5" height="4.6" fill="#A6A6A6"/>
<polygon points="5.5,9 7.6,9 7.6,11.2" fill="#2E2E2E"/>
<polygon points="8.4,9 10.5,9 8.4,11.2" fill="#2E2E2E"/>
<rect x="6.9" y="9" width="0.8" height="0.9" fill="#050505"/>
<rect x="8.3" y="9" width="0.8" height="0.9" fill="#050505"/>

<g id="head"><path d="M3 -.5 L5 -2.4 L11 -2.4 L13 -.6 L13.8 2 L13.8 6 L12 8 L10 8.8 L5.5 8.8 L3.5 7.4 L2.1 5 L2.2 1.5 Z" fill="#DEB48E"/><ellipse cx="1.5" cy="3.8" rx="0.8" ry="1.6" fill="#DEB48E"/><ellipse cx="14.0" cy="3.8" rx="0.8" ry="1.6" fill="#DEB48E"/><path d="M1.3 3 L1.6 4.4 M14.1 3 L13.9 4.4" fill="none" stroke="#BC9474" stroke-width="0.25" stroke-linecap="round" stroke-linejoin="round"/><path d="M2.1 2 L1.6 -.3 L2.5 -2 L4.7 -3.4 L7.7 -3.8 L11 -3.3 L13.3 -1.9 L14 0 L13.8 3.2 L12.8 2.2 L12.5 -.3 L3.4 -.5 L3 2.6 Z" fill="#929998"/><path d="M2.3 -1.2 L4.3 -2.8 L7.3 -3.2 L10.3 -3 L12.7 -1.8 L13 -.6 L10.4 -.8 L7.6 -1.4 L4.5 -.9 Z" fill="#C2C7C3"/><path d="M3.5 -1.6 L4 -2.4 M5.2 -1.5 L5.8 -2.8 M7 -1.5 L7.5 -3 M8.8 -1.3 L9.3 -2.8 M11 -.9 L11.2 -2.2" fill="none" stroke="#E6E7DB" stroke-width="0.28" stroke-linecap="round" stroke-linejoin="round"/><path d="M3.8 2.4 L6.5 2.4 M9.5 2.4 L12 2.4" fill="none" stroke="#5B5A51" stroke-width="0.45" stroke-linecap="round" stroke-linejoin="round"/><path d="M7.9 4 L7.5 5.8 L8.4 6 L9 5.8" fill="none" stroke="#BC9474" stroke-width="0.3" stroke-linecap="round" stroke-linejoin="round"/><ellipse cx="5.4" cy="3.85" rx="1.05" ry="0.63" fill="#F9EDDE"/><path d="M4.300000000000001 3.8000000000000003 Q5.4 3.0 6.5 3.75" fill="none" stroke="#846A57" stroke-width="0.28" stroke-linecap="round" stroke-linejoin="round"/><ellipse cx="10.7" cy="3.85" rx="1.05" ry="0.63" fill="#F9EDDE"/><path d="M9.6 3.8000000000000003 Q10.7 3.0 11.799999999999999 3.75" fill="none" stroke="#846A57" stroke-width="0.28" stroke-linecap="round" stroke-linejoin="round"/><g id="eyes-js"><g class="pupils"><ellipse cx="5.4" cy="3.85" rx="0.38" ry="0.52" fill="#4F5047"/><ellipse cx="5.4" cy="3.85" rx="0.18" ry="0.36" fill="#272E30"/><ellipse cx="10.7" cy="3.85" rx="0.38" ry="0.52" fill="#4F5047"/><ellipse cx="10.7" cy="3.85" rx="0.18" ry="0.36" fill="#272E30"/></g></g><ellipse cx="5.4" cy="4.1" rx="2.3" ry="1.4" fill="none" stroke="#414746" stroke-width="0.3"/><ellipse cx="10.7" cy="4.1" rx="2.3" ry="1.4" fill="none" stroke="#414746" stroke-width="0.3"/><path d="M7.7 3.8000000000000003 L8.399999999999999 3.8000000000000003 M3.1000000000000005 3.85 L1.7 3.45 M13.0 3.85 L13.9 3.45" fill="none" stroke="#414746" stroke-width="0.3" stroke-linecap="round" stroke-linejoin="round"/><path d="M6.5 7.25 Q8 6.85 9.6 7.25 L9.2 7.7 L7 7.7 Z" fill="#987360"/></g>

</g></g>

</svg>
