<svg xmlns="http://www.w3.org/2000/svg" viewBox="-15 -25 45 45" width="500" height="500" shape-rendering="crispEdges">
<defs><style>
#arm-L { transform-origin: 2.25px 9.5px; } #arm-R { transform-origin: 13.75px 9.5px; }


.recoil { transform-origin: 7.5px 15px; animation: recoil 2.5s ease-out both; }
@keyframes recoil { 0% { transform: translateX(0); } 8% { transform: translateX(-1.2px) rotate(-3deg); } 30%,100% { transform: translateX(0) rotate(0); } }
#arm-R { animation: wag 0.5s infinite alternate ease-in-out; }
@keyframes wag { from { transform: rotate(-95deg); } to { transform: rotate(-120deg); } }
#shadow-js { transform-origin: 7.5px 15px; }

.bubble { transform-origin: 7.5px -6px; animation: pop 0.45s ease-out both; }
@keyframes pop { 0% { transform: scale(0); opacity: 0; } 70% { transform: scale(1.08); opacity: 1; } 100% { transform: scale(1); opacity: 1; } }

</style></defs>
<g id="shadow-js"><rect x="2.5" y="15.3" width="11" height="0.9" fill="#000000" opacity="0.35"/></g>
<g id="leg-L"><rect x="4" y="13" width="2.8" height="1.8" fill="#8A969C"/><rect x="3.5" y="14.3" width="3.8" height="1.2" fill="#8A969C"/></g><g id="leg-R"><rect x="9" y="13" width="2.8" height="1.8" fill="#8A969C"/><rect x="8.5" y="14.3" width="3.8" height="1.2" fill="#8A969C"/></g>
<g id="body-js"><g class="recoil">
<g id="arm-L"><rect x="0.9" y="9" width="1.7" height="3.8" fill="#8A969C"/><rect x="0.6" y="12" width="2.3" height="1.7" fill="#8A969C"/></g>
<g id="arm-R"><rect x="13.3" y="9" width="1.7" height="3.8" fill="#8A969C"/><rect x="13" y="12" width="2.3" height="1.7" fill="#8A969C"/></g>


<g id="head">
<polygon points="3,0 2,-5 3,-8 5,-6 6,-1 10,-1 11,-6 13,-8 14,-5 13,0 16,3 17,8 16,12 14,14 2,14 0,12 -1,8 0,3" fill="#8A969C" /><polygon points="3,-5 3.5,-6 4.3,-3 4.5,-.8 3.5,-1.5" fill="#6C7C86" /><polygon points="12,-5 12.5,-6 12.8,-2 11.5,-1" fill="#6C7C86" /><polygon points="5,5 11,5 14,7 14.5,11 12.5,13.6 3.5,13.6 1.5,11 2,7" fill="#E6DDBE" /><polygon points="4,7 5,6 6,7 5,6.7" fill="#77868C" /><polygon points="7,7 8,6 9,7 8,6.7" fill="#77868C" /><polygon points="10,7 11,6 12,7 11,6.7" fill="#77868C" /><polygon points="3.5,9.3 4.5,8.3 5.5,9.3 4.5,9.0" fill="#77868C" /><polygon points="7,9.3 8,8.3 9,9.3 8,9.0" fill="#77868C" /><polygon points="10.5,9.3 11.5,8.3 12.5,9.3 11.5,9.0" fill="#77868C" />

<ellipse cx="3.6" cy="2.0" rx="1.4" ry="1.7" fill="white"/><ellipse cx="12.1" cy="2.0" rx="1.4" ry="1.7" fill="white"/><g ><g class="pupils"><path d="M2.8 2.3 Q3.6 1.4 4.4 2.3" stroke="#1E2A47" stroke-width=".4" fill="none"/><path d="M11.3 2.3 Q12.1 1.4 12.9 2.3" stroke="#1E2A47" stroke-width=".4" fill="none"/></g></g><polygon points="6.5,3 9.5,3 8,4" fill="#394955" /><path d="M0 3 L3 3.6 M-.6 4.4 L3 4.2 M0 5.6 L3 4.9 M13 3.6 L16 3 M13 4.2 L16.6 4.4 M13 4.9 L16 5.6" stroke="#394955" stroke-width=".28"/>
</g>

</g></g>
<g class="bubble">
<rect x="1.800" y="-11.800" width="11.400" height="5.400" rx="1" ry="1" fill="#FFFFFF" stroke="#1E2A47" stroke-width="0.5"/>
<polygon points="6.200,-6.700 8.800,-6.700 7.500,-4.200" fill="#FFFFFF" stroke="#1E2A47" stroke-width="0.5" stroke-linejoin="round"/>
<rect x="6.300" y="-7.100" width="2.4" height="0.8" fill="#FFFFFF"/>
<rect x="3.000" y="-10.600" width="0.600" height="0.600" fill="#70A36D"/>
<rect x="4.200" y="-10.600" width="0.600" height="0.600" fill="#70A36D"/>
<rect x="3.000" y="-10.000" width="0.600" height="0.600" fill="#70A36D"/>
<rect x="4.200" y="-10.000" width="0.600" height="0.600" fill="#70A36D"/>
<rect x="3.000" y="-9.400" width="0.600" height="0.600" fill="#70A36D"/>
<rect x="3.600" y="-9.400" width="0.600" height="0.600" fill="#70A36D"/>
<rect x="4.200" y="-9.400" width="0.600" height="0.600" fill="#70A36D"/>
<rect x="3.000" y="-8.800" width="0.600" height="0.600" fill="#70A36D"/>
<rect x="4.200" y="-8.800" width="0.600" height="0.600" fill="#70A36D"/>
<rect x="3.000" y="-8.200" width="0.600" height="0.600" fill="#70A36D"/>
<rect x="4.200" y="-8.200" width="0.600" height="0.600" fill="#70A36D"/>
<rect x="5.400" y="-10.600" width="0.600" height="0.600" fill="#70A36D"/>
<rect x="6.000" y="-10.600" width="0.600" height="0.600" fill="#70A36D"/>
<rect x="6.600" y="-10.600" width="0.600" height="0.600" fill="#70A36D"/>
<rect x="5.400" y="-10.000" width="0.600" height="0.600" fill="#70A36D"/>
<rect x="5.400" y="-9.400" width="0.600" height="0.600" fill="#70A36D"/>
<rect x="6.000" y="-9.400" width="0.600" height="0.600" fill="#70A36D"/>
<rect x="5.400" y="-8.800" width="0.600" height="0.600" fill="#70A36D"/>
<rect x="5.400" y="-8.200" width="0.600" height="0.600" fill="#70A36D"/>
<rect x="6.000" y="-8.200" width="0.600" height="0.600" fill="#70A36D"/>
<rect x="6.600" y="-8.200" width="0.600" height="0.600" fill="#70A36D"/>
<rect x="7.800" y="-10.600" width="0.600" height="0.600" fill="#70A36D"/>
<rect x="9.000" y="-10.600" width="0.600" height="0.600" fill="#70A36D"/>
<rect x="7.800" y="-10.000" width="0.600" height="0.600" fill="#70A36D"/>
<rect x="9.000" y="-10.000" width="0.600" height="0.600" fill="#70A36D"/>
<rect x="8.400" y="-9.400" width="0.600" height="0.600" fill="#70A36D"/>
<rect x="8.400" y="-8.800" width="0.600" height="0.600" fill="#70A36D"/>
<rect x="8.400" y="-8.200" width="0.600" height="0.600" fill="#70A36D"/>
<rect x="10.800" y="-10.600" width="0.600" height="0.600" fill="#70A36D"/>
<rect x="10.800" y="-10.000" width="0.600" height="0.600" fill="#70A36D"/>
<rect x="10.800" y="-9.400" width="0.600" height="0.600" fill="#70A36D"/>
<rect x="10.800" y="-8.200" width="0.600" height="0.600" fill="#70A36D"/>
</g>
</svg>
