<svg xmlns="http://www.w3.org/2000/svg" viewBox="-15 -25 45 45" width="500" height="500" shape-rendering="crispEdges">
<defs><style>
#arm-L { transform-origin: 2.25px 9.5px; } #arm-R { transform-origin: 13.75px 9.5px; }


.jump { transform-origin: 7.5px 15px; animation: jump 0.8s ease-out both; }
@keyframes jump { 0% { transform: translateY(0); } 40% { transform: translateY(-4px); } 100% { transform: translateY(0); } }
#shadow-js { transform-origin: 7.5px 15px; animation: sh 0.8s ease-out both; }
@keyframes sh { 0%,100% { transform: scaleX(1); } 40% { transform: scaleX(0.6); opacity: 0.2; } }
#arm-L { animation: up 0.8s both; } #arm-R { animation: upR 0.8s both; }
@keyframes up { 0% { transform: rotate(0); } 40%,100% { transform: rotate(160deg); } }
@keyframes upR { 0% { transform: rotate(0); } 40%,100% { transform: rotate(-160deg); } }
.bubble { transform-origin: 7.5px -4px; animation: pop 0.5s 0.3s ease-out both; }
@keyframes pop { 0% { transform: scale(0); opacity: 0; } 100% { transform: scale(1); opacity: 1; } }

</style></defs>
<g id="shadow-js"><rect x="2.5" y="15.3" width="11" height="0.9" fill="#000000" opacity="0.35"/></g>
<g id="leg-L"><rect x="4" y="13" width="2.8" height="1.8" fill="#3072B1"/><rect x="3.5" y="14.3" width="3.8" height="1.2" fill="#734F32"/></g><g id="leg-R"><rect x="9" y="13" width="2.8" height="1.8" fill="#3072B1"/><rect x="8.5" y="14.3" width="3.8" height="1.2" fill="#734F32"/></g>
<g id="body-js"><g class="jump">
<g id="arm-L"><rect x="0.9" y="9" width="1.7" height="3.8" fill="#D83B40"/><rect x="0.6" y="12" width="2.3" height="1.7" fill="#FFFFFF"/></g>
<g id="arm-R"><rect x="13.3" y="9" width="1.7" height="3.8" fill="#D83B40"/><rect x="13" y="12" width="2.3" height="1.7" fill="#FFFFFF"/></g>
<rect x="2" y="9" width="12" height="4.7" fill="#D83B40"/><rect x="4" y="9" width="1.5" height="5" fill="#3072B1"/><rect x="10.5" y="9" width="1.5" height="5" fill="#3072B1"/><rect x="4" y="11" width="8" height="3" fill="#3072B1"/><rect x="4.5" y="10.7" width="0.8" height="0.8" fill="#F7CE51"/><rect x="10.7" y="10.7" width="0.8" height="0.8" fill="#F7CE51"/>

<g id="head">
<polygon points="4,0 12,0 14,2 14,7 11,9 5,9 2,7 2,2" fill="#EDBE98" /><rect x="0.6" y="3" width="2.4" height="3" fill="#E2A982"/><rect x="13" y="3" width="2.4" height="3" fill="#E2A982"/>
<polygon points="1,4 1,0 3,-2 13,-2 15,0 15,4 13,5 12,2 4,2 3,5" fill="#71422D" /><polygon points="1,0 1,-2 3,-2 3,-4 6,-5 11,-5 14,-3 14,0" fill="#D83B40" /><rect x="0" y="0" width="16" height="1.2" fill="#AE2835"/><rect x="2" y="-3" width="3" height="0.7" fill="#EA6254"/><ellipse cx="8" cy="-2.2" rx="2.2" ry="1.7" fill="#FFF4DD"/><path d="M6.8 -1 V-3.2 L8 -1.8 L9.2 -3.2 V-1" fill="none" stroke="#C8333A" stroke-width=".55"/>
<ellipse cx="5.3" cy="3.0999999999999996" rx="1.4" ry="1.7" fill="white"/><ellipse cx="10.7" cy="3.0999999999999996" rx="1.4" ry="1.7" fill="white"/><g ><g class="pupils"><path d="M4.5 3.4 Q5.3 2.5 6.1 3.4" stroke="#1E2A47" stroke-width=".4" fill="none"/><path d="M9.9 3.4 Q10.7 2.5 11.5 3.4" stroke="#1E2A47" stroke-width=".4" fill="none"/></g></g><polygon points="3.7,5 5.4,5.4 7.8,5 10,5.4 12.5,5 11.5,7 10,7.5 8,7 6,7.5 4.5,7" fill="#603923" /><ellipse cx="8" cy="4.7" rx="2" ry="1.4" fill="#DCA781"/><rect x="5" y="1.4" width="2" height="0.6" fill="#603923"/><rect x="9.7" y="1.4" width="2" height="0.6" fill="#603923"/>
</g>

</g></g>
<g class="bubble">
<rect x="-4.200" y="-12.800" width="23.400" height="5.400" rx="1" ry="1" fill="#FFFFFF" stroke="#1E2A47" stroke-width="0.5"/>
<polygon points="6.200,-7.700 8.800,-7.700 7.500,-5.200" fill="#FFFFFF" stroke="#1E2A47" stroke-width="0.5" stroke-linejoin="round"/>
<rect x="6.300" y="-8.100" width="2.4" height="0.8" fill="#FFFFFF"/>
<rect x="-3.000" y="-11.600" width="0.600" height="0.600" fill="#1E2A47"/>
<rect x="-3.000" y="-11.000" width="0.600" height="0.600" fill="#1E2A47"/>
<rect x="-3.000" y="-10.400" width="0.600" height="0.600" fill="#1E2A47"/>
<rect x="-3.000" y="-9.800" width="0.600" height="0.600" fill="#1E2A47"/>
<rect x="-3.000" y="-9.200" width="0.600" height="0.600" fill="#1E2A47"/>
<rect x="-2.400" y="-9.200" width="0.600" height="0.600" fill="#1E2A47"/>
<rect x="-1.800" y="-9.200" width="0.600" height="0.600" fill="#1E2A47"/>
<rect x="-0.600" y="-11.600" width="0.600" height="0.600" fill="#1E2A47"/>
<rect x="0.000" y="-11.600" width="0.600" height="0.600" fill="#1E2A47"/>
<rect x="0.600" y="-11.600" width="0.600" height="0.600" fill="#1E2A47"/>
<rect x="-0.600" y="-11.000" width="0.600" height="0.600" fill="#1E2A47"/>
<rect x="-0.600" y="-10.400" width="0.600" height="0.600" fill="#1E2A47"/>
<rect x="0.000" y="-10.400" width="0.600" height="0.600" fill="#1E2A47"/>
<rect x="-0.600" y="-9.800" width="0.600" height="0.600" fill="#1E2A47"/>
<rect x="-0.600" y="-9.200" width="0.600" height="0.600" fill="#1E2A47"/>
<rect x="0.000" y="-9.200" width="0.600" height="0.600" fill="#1E2A47"/>
<rect x="0.600" y="-9.200" width="0.600" height="0.600" fill="#1E2A47"/>
<rect x="1.800" y="-11.600" width="0.600" height="0.600" fill="#1E2A47"/>
<rect x="2.400" y="-11.600" width="0.600" height="0.600" fill="#1E2A47"/>
<rect x="3.000" y="-11.600" width="0.600" height="0.600" fill="#1E2A47"/>
<rect x="2.400" y="-11.000" width="0.600" height="0.600" fill="#1E2A47"/>
<rect x="2.400" y="-10.400" width="0.600" height="0.600" fill="#1E2A47"/>
<rect x="2.400" y="-9.800" width="0.600" height="0.600" fill="#1E2A47"/>
<rect x="2.400" y="-9.200" width="0.600" height="0.600" fill="#1E2A47"/>
<rect x="4.800" y="-11.600" width="0.600" height="0.600" fill="#1E2A47"/>
<rect x="4.800" y="-11.000" width="0.600" height="0.600" fill="#1E2A47"/>
<rect x="7.200" y="-11.600" width="0.600" height="0.600" fill="#1E2A47"/>
<rect x="7.800" y="-11.600" width="0.600" height="0.600" fill="#1E2A47"/>
<rect x="6.600" y="-11.000" width="0.600" height="0.600" fill="#1E2A47"/>
<rect x="7.200" y="-10.400" width="0.600" height="0.600" fill="#1E2A47"/>
<rect x="7.800" y="-9.800" width="0.600" height="0.600" fill="#1E2A47"/>
<rect x="6.600" y="-9.200" width="0.600" height="0.600" fill="#1E2A47"/>
<rect x="7.200" y="-9.200" width="0.600" height="0.600" fill="#1E2A47"/>
<rect x="12.000" y="-11.600" width="0.600" height="0.600" fill="#1E2A47"/>
<rect x="12.600" y="-11.600" width="0.600" height="0.600" fill="#1E2A47"/>
<rect x="11.400" y="-11.000" width="0.600" height="0.600" fill="#1E2A47"/>
<rect x="11.400" y="-10.400" width="0.600" height="0.600" fill="#1E2A47"/>
<rect x="12.600" y="-10.400" width="0.600" height="0.600" fill="#1E2A47"/>
<rect x="11.400" y="-9.800" width="0.600" height="0.600" fill="#1E2A47"/>
<rect x="12.600" y="-9.800" width="0.600" height="0.600" fill="#1E2A47"/>
<rect x="12.000" y="-9.200" width="0.600" height="0.600" fill="#1E2A47"/>
<rect x="12.600" y="-9.200" width="0.600" height="0.600" fill="#1E2A47"/>
<rect x="14.400" y="-11.600" width="0.600" height="0.600" fill="#1E2A47"/>
<rect x="13.800" y="-11.000" width="0.600" height="0.600" fill="#1E2A47"/>
<rect x="15.000" y="-11.000" width="0.600" height="0.600" fill="#1E2A47"/>
<rect x="13.800" y="-10.400" width="0.600" height="0.600" fill="#1E2A47"/>
<rect x="15.000" y="-10.400" width="0.600" height="0.600" fill="#1E2A47"/>
<rect x="13.800" y="-9.800" width="0.600" height="0.600" fill="#1E2A47"/>
<rect x="15.000" y="-9.800" width="0.600" height="0.600" fill="#1E2A47"/>
<rect x="14.400" y="-9.200" width="0.600" height="0.600" fill="#1E2A47"/>
<rect x="16.800" y="-11.600" width="0.600" height="0.600" fill="#1E2A47"/>
<rect x="16.800" y="-11.000" width="0.600" height="0.600" fill="#1E2A47"/>
<rect x="16.800" y="-10.400" width="0.600" height="0.600" fill="#1E2A47"/>
<rect x="16.800" y="-9.200" width="0.600" height="0.600" fill="#1E2A47"/>
</g>
</svg>
