<svg xmlns="http://www.w3.org/2000/svg" viewBox="-15 -25 45 45" width="500" height="500" shape-rendering="crispEdges">
<defs><style>
#arm-L { transform-origin: 2.25px 9.5px; } #arm-R { transform-origin: 13.75px 9.5px; }
#arm-L { transform: rotate(-20deg); }
#arm-R { transform: rotate(20deg); }

.shake { transform-origin: 7.5px 15px; animation: shake 0.5s infinite ease-in-out; }
@keyframes shake { 0%,100% { transform: translateX(0); } 25% { transform: translateX(-0.5px); } 75% { transform: translateX(0.5px); } }
.vein { animation: vein 0.8s infinite step-end; }
@keyframes vein { 0%,100% { opacity: 1; } 50% { opacity: 0.4; } }
#shadow-js { transform-origin: 7.5px 15px; }

.bubble { transform-origin: 7.5px -6px; animation: pop 0.45s ease-out both; }
@keyframes pop { 0% { transform: scale(0); opacity: 0; } 70% { transform: scale(1.08); opacity: 1; } 100% { transform: scale(1); opacity: 1; } }

</style></defs>
<g id="shadow-js"><rect x="2.5" y="15.3" width="11" height="0.9" fill="#000000" opacity="0.35"/></g>
<g id="leg-L"><rect x="4" y="12.2" width="1.3" height="1.3" fill="#EDCE4E"/><rect x="4" y="13.5" width="1.3" height="1.1" fill="#FFFFFF"/><rect x="3.5" y="14.6" width="3" height="0.8" fill="#1E2A47"/></g><g id="leg-R"><rect x="9" y="12.2" width="1.3" height="1.3" fill="#EDCE4E"/><rect x="9" y="13.5" width="1.3" height="1.1" fill="#FFFFFF"/><rect x="8.5" y="14.6" width="3" height="0.8" fill="#1E2A47"/></g>
<g id="body-js"><g class="shake">
<g id="arm-L"><rect x="0.9" y="9" width="1.7" height="3.8" fill="#F4D34D"/></g>
<g id="arm-R"><rect x="13.3" y="9" width="1.7" height="3.8" fill="#F4D34D"/></g>
<rect x="0" y="8" width="16" height="1.8" fill="#FFFFFF"/><rect x="0" y="9.8" width="16" height="2.4" fill="#95613D"/><polygon points="7,8.5 9,8.5 8.5,9.4 9,10.9 8,11.5 7,10.9 7.5,9.4" fill="#C74039" /><rect x="1" y="10.4" width="3" height="0.45" fill="#1E2A47"/><rect x="5" y="10.4" width="2" height="0.45" fill="#1E2A47"/><rect x="9.5" y="10.4" width="2" height="0.45" fill="#1E2A47"/><rect x="13" y="10.4" width="2" height="0.45" fill="#1E2A47"/>
<rect x="2.8" y="10.6" width="10.4" height="1.9" fill="#F4D34D"/><rect x="2.6" y="10.9" width="1.4" height="1.2" fill="#F4D34D"/><rect x="12" y="10.9" width="1.4" height="1.2" fill="#F4D34D"/>
<g id="head">
<polygon points="0,-4 4,-4 4,-3.6 8,-4 12,-3.6 16,-4 16,0 15.6,0 16,4 15.6,8.8 0,8.8 .4,5 0,2" fill="#F4D34D" /><rect x="1" y="-2" width="1.2" height="1" fill="#C6AC3C"/><rect x="13" y="-2.6" width="1.4" height="1.3" fill="#C6AC3C"/><rect x="0.7" y="5" width="1.1" height="1.8" fill="#C6AC3C"/><rect x="13.8" y="6" width="1.4" height="1" fill="#C6AC3C"/><rect x="2" y="7.4" width="1" height="1" fill="#C6AC3C"/><rect x="11.5" y="-2.7" width="0.6" height="0.7" fill="#C6AC3C"/>

<circle cx="5" cy="1.6" r="2.7" fill="white" stroke="#695A32" stroke-width=".25"/><circle cx="11" cy="1.6" r="2.7" fill="white" stroke="#695A32" stroke-width=".25"/><rect x="3.5" y="-2" width="0.35" height="1.2" fill="#1E2A47"/><rect x="5" y="-2" width="0.35" height="1.2" fill="#1E2A47"/><rect x="6.5" y="-2" width="0.35" height="1.2" fill="#1E2A47"/><rect x="9.5" y="-2" width="0.35" height="1.2" fill="#1E2A47"/><rect x="11" y="-2" width="0.35" height="1.2" fill="#1E2A47"/><rect x="12.5" y="-2" width="0.35" height="1.2" fill="#1E2A47"/><g ><g class="pupils"><path d="M4.1 1.8 Q4.8999999999999995 0.8999999999999999 5.699999999999999 1.8" stroke="#1E2A47" stroke-width=".4" fill="none"/><path d="M10.100000000000001 1.8 Q10.9 0.8999999999999999 11.700000000000001 1.8" stroke="#1E2A47" stroke-width=".4" fill="none"/></g></g><rect x="7" y="2.4" width="1.7" height="3" fill="#EDD05D"/><path d="M3 5.1 Q8 9.4 13 5.1" stroke="#A56D36" stroke-width=".4" fill="none"/><rect x="6.4" y="6.7" width="1.4" height="1.6" fill="#FFFFFF"/><rect x="8.3" y="6.7" width="1.4" height="1.6" fill="#FFFFFF"/><rect x="2" y="4.8" width="1.5" height="0.7" fill="#E9915A"/><rect x="12.5" y="4.8" width="1.5" height="0.7" fill="#E9915A"/>
</g>

</g></g>
<g class="vein"><rect x="12.6" y="1.2" width="0.5" height="1.4" fill="#D62828"/><rect x="12.1" y="1.7" width="1.4" height="0.5" fill="#D62828"/></g><g class="bubble">
<rect x="-0.350" y="-12.300" width="15.700" height="5.900" rx="1" ry="1" fill="#FFFFFF" stroke="#1E2A47" stroke-width="0.5"/>
<polygon points="6.200,-6.700 8.800,-6.700 7.500,-4.200" fill="#FFFFFF" stroke="#1E2A47" stroke-width="0.5" stroke-linejoin="round"/>
<rect x="6.300" y="-7.100" width="2.4" height="0.8" fill="#FFFFFF"/>
<rect x="1.550" y="-11.100" width="0.700" height="0.700" fill="#E78354"/>
<rect x="0.850" y="-10.400" width="0.700" height="0.700" fill="#E78354"/>
<rect x="2.250" y="-10.400" width="0.700" height="0.700" fill="#E78354"/>
<rect x="0.850" y="-9.700" width="0.700" height="0.700" fill="#E78354"/>
<rect x="2.250" y="-9.700" width="0.700" height="0.700" fill="#E78354"/>
<rect x="0.850" y="-9.000" width="0.700" height="0.700" fill="#E78354"/>
<rect x="2.250" y="-9.000" width="0.700" height="0.700" fill="#E78354"/>
<rect x="1.550" y="-8.300" width="0.700" height="0.700" fill="#E78354"/>
<rect x="4.350" y="-11.100" width="0.700" height="0.700" fill="#E78354"/>
<rect x="3.650" y="-10.400" width="0.700" height="0.700" fill="#E78354"/>
<rect x="5.050" y="-10.400" width="0.700" height="0.700" fill="#E78354"/>
<rect x="3.650" y="-9.700" width="0.700" height="0.700" fill="#E78354"/>
<rect x="5.050" y="-9.700" width="0.700" height="0.700" fill="#E78354"/>
<rect x="3.650" y="-9.000" width="0.700" height="0.700" fill="#E78354"/>
<rect x="5.050" y="-9.000" width="0.700" height="0.700" fill="#E78354"/>
<rect x="4.350" y="-8.300" width="0.700" height="0.700" fill="#E78354"/>
<rect x="6.450" y="-11.100" width="0.700" height="0.700" fill="#E78354"/>
<rect x="7.150" y="-11.100" width="0.700" height="0.700" fill="#E78354"/>
<rect x="6.450" y="-10.400" width="0.700" height="0.700" fill="#E78354"/>
<rect x="7.850" y="-10.400" width="0.700" height="0.700" fill="#E78354"/>
<rect x="6.450" y="-9.700" width="0.700" height="0.700" fill="#E78354"/>
<rect x="7.150" y="-9.700" width="0.700" height="0.700" fill="#E78354"/>
<rect x="6.450" y="-9.000" width="0.700" height="0.700" fill="#E78354"/>
<rect x="6.450" y="-8.300" width="0.700" height="0.700" fill="#E78354"/>
<rect x="9.950" y="-11.100" width="0.700" height="0.700" fill="#E78354"/>
<rect x="10.650" y="-11.100" width="0.700" height="0.700" fill="#E78354"/>
<rect x="9.250" y="-10.400" width="0.700" height="0.700" fill="#E78354"/>
<rect x="9.950" y="-9.700" width="0.700" height="0.700" fill="#E78354"/>
<rect x="10.650" y="-9.000" width="0.700" height="0.700" fill="#E78354"/>
<rect x="9.250" y="-8.300" width="0.700" height="0.700" fill="#E78354"/>
<rect x="9.950" y="-8.300" width="0.700" height="0.700" fill="#E78354"/>
<rect x="12.750" y="-11.100" width="0.700" height="0.700" fill="#E78354"/>
<rect x="12.750" y="-10.400" width="0.700" height="0.700" fill="#E78354"/>
<rect x="12.750" y="-9.700" width="0.700" height="0.700" fill="#E78354"/>
<rect x="12.750" y="-8.300" width="0.700" height="0.700" fill="#E78354"/>
</g>
</svg>
