<svg xmlns="http://www.w3.org/2000/svg" viewBox="-15 -25 45 45" width="500" height="500" shape-rendering="crispEdges">
<defs><style>
#arm-L { transform-origin: 2.25px 9.5px; } #arm-R { transform-origin: 13.75px 9.5px; }


.jump { transform-origin: 7.5px 15px; animation: jump 0.8s ease-out both; }
@keyframes jump { 0% { transform: translateY(0); } 40% { transform: translateY(-4px); } 100% { transform: translateY(0); } }
#shadow-js { transform-origin: 7.5px 15px; animation: sh 0.8s ease-out both; }
@keyframes sh { 0%,100% { transform: scaleX(1); } 40% { transform: scaleX(0.6); opacity: 0.2; } }
#arm-L { animation: up 0.8s both; } #arm-R { animation: upR 0.8s both; }
@keyframes up { 0% { transform: rotate(0); } 40%,100% { transform: rotate(160deg); } }
@keyframes upR { 0% { transform: rotate(0); } 40%,100% { transform: rotate(-160deg); } }
.bubble { transform-origin: 7.5px -4px; animation: pop 0.5s 0.3s ease-out both; }
@keyframes pop { 0% { transform: scale(0); opacity: 0; } 100% { transform: scale(1); opacity: 1; } }

</style></defs>
<g id="shadow-js"><rect x="2.5" y="15.3" width="11" height="0.9" fill="#000000" opacity="0.35"/></g>
<g id="leg-L"><rect x="4" y="12.2" width="1.3" height="1.3" fill="#EDCE4E"/><rect x="4" y="13.5" width="1.3" height="1.1" fill="#FFFFFF"/><rect x="3.5" y="14.6" width="3" height="0.8" fill="#1E2A47"/></g><g id="leg-R"><rect x="9" y="12.2" width="1.3" height="1.3" fill="#EDCE4E"/><rect x="9" y="13.5" width="1.3" height="1.1" fill="#FFFFFF"/><rect x="8.5" y="14.6" width="3" height="0.8" fill="#1E2A47"/></g>
<g id="body-js"><g class="jump">
<g id="arm-L"><rect x="0.9" y="9" width="1.7" height="3.8" fill="#F4D34D"/><rect x="0.6" y="12" width="2.3" height="1.7" fill="#F4D34D"/></g>
<g id="arm-R"><rect x="13.3" y="9" width="1.7" height="3.8" fill="#F4D34D"/><rect x="13" y="12" width="2.3" height="1.7" fill="#F4D34D"/></g>
<rect x="0" y="8" width="16" height="1.8" fill="#FFFFFF"/><rect x="0" y="9.8" width="16" height="2.4" fill="#95613D"/><polygon points="7,8.5 9,8.5 8.5,9.4 9,10.9 8,11.5 7,10.9 7.5,9.4" fill="#C74039" /><rect x="1" y="10.4" width="3" height="0.45" fill="#1E2A47"/><rect x="5" y="10.4" width="2" height="0.45" fill="#1E2A47"/><rect x="9.5" y="10.4" width="2" height="0.45" fill="#1E2A47"/><rect x="13" y="10.4" width="2" height="0.45" fill="#1E2A47"/>

<g id="head">
<polygon points="0,-4 4,-4 4,-3.6 8,-4 12,-3.6 16,-4 16,0 15.6,0 16,4 15.6,8.8 0,8.8 .4,5 0,2" fill="#F4D34D" /><rect x="1" y="-2" width="1.2" height="1" fill="#C6AC3C"/><rect x="13" y="-2.6" width="1.4" height="1.3" fill="#C6AC3C"/><rect x="0.7" y="5" width="1.1" height="1.8" fill="#C6AC3C"/><rect x="13.8" y="6" width="1.4" height="1" fill="#C6AC3C"/><rect x="2" y="7.4" width="1" height="1" fill="#C6AC3C"/><rect x="11.5" y="-2.7" width="0.6" height="0.7" fill="#C6AC3C"/>

<circle cx="5" cy="1.6" r="2.7" fill="white" stroke="#695A32" stroke-width=".25"/><circle cx="11" cy="1.6" r="2.7" fill="white" stroke="#695A32" stroke-width=".25"/><rect x="3.5" y="-2" width="0.35" height="1.2" fill="#1E2A47"/><rect x="5" y="-2" width="0.35" height="1.2" fill="#1E2A47"/><rect x="6.5" y="-2" width="0.35" height="1.2" fill="#1E2A47"/><rect x="9.5" y="-2" width="0.35" height="1.2" fill="#1E2A47"/><rect x="11" y="-2" width="0.35" height="1.2" fill="#1E2A47"/><rect x="12.5" y="-2" width="0.35" height="1.2" fill="#1E2A47"/><g ><g class="pupils"><path d="M4.1 1.8 Q4.8999999999999995 0.8999999999999999 5.699999999999999 1.8" stroke="#1E2A47" stroke-width=".4" fill="none"/><path d="M10.100000000000001 1.8 Q10.9 0.8999999999999999 11.700000000000001 1.8" stroke="#1E2A47" stroke-width=".4" fill="none"/></g></g><rect x="7" y="2.4" width="1.7" height="3" fill="#EDD05D"/><path d="M3 5.1 Q8 9.4 13 5.1" stroke="#A56D36" stroke-width=".4" fill="none"/><rect x="6.4" y="6.7" width="1.4" height="1.6" fill="#FFFFFF"/><rect x="8.3" y="6.7" width="1.4" height="1.6" fill="#FFFFFF"/><rect x="2" y="4.8" width="1.5" height="0.7" fill="#E9915A"/><rect x="12.5" y="4.8" width="1.5" height="0.7" fill="#E9915A"/>
</g>

</g></g>
<g class="bubble">
<rect x="-5.400" y="-12.800" width="25.800" height="5.400" rx="1" ry="1" fill="#FFFFFF" stroke="#1E2A47" stroke-width="0.5"/>
<polygon points="6.200,-7.700 8.800,-7.700 7.500,-5.200" fill="#FFFFFF" stroke="#1E2A47" stroke-width="0.5" stroke-linejoin="round"/>
<rect x="6.300" y="-8.100" width="2.4" height="0.8" fill="#FFFFFF"/>
<rect x="-4.200" y="-11.600" width="0.600" height="0.600" fill="#1E2A47"/>
<rect x="-3.600" y="-11.600" width="0.600" height="0.600" fill="#1E2A47"/>
<rect x="-3.000" y="-11.600" width="0.600" height="0.600" fill="#1E2A47"/>
<rect x="-3.600" y="-11.000" width="0.600" height="0.600" fill="#1E2A47"/>
<rect x="-3.600" y="-10.400" width="0.600" height="0.600" fill="#1E2A47"/>
<rect x="-3.600" y="-9.800" width="0.600" height="0.600" fill="#1E2A47"/>
<rect x="-4.200" y="-9.200" width="0.600" height="0.600" fill="#1E2A47"/>
<rect x="-3.600" y="-9.200" width="0.600" height="0.600" fill="#1E2A47"/>
<rect x="-3.000" y="-9.200" width="0.600" height="0.600" fill="#1E2A47"/>
<rect x="-1.200" y="-11.600" width="0.600" height="0.600" fill="#1E2A47"/>
<rect x="-1.200" y="-11.000" width="0.600" height="0.600" fill="#1E2A47"/>
<rect x="0.600" y="-11.600" width="0.600" height="0.600" fill="#1E2A47"/>
<rect x="1.800" y="-11.600" width="0.600" height="0.600" fill="#1E2A47"/>
<rect x="0.600" y="-11.000" width="0.600" height="0.600" fill="#1E2A47"/>
<rect x="1.200" y="-11.000" width="0.600" height="0.600" fill="#1E2A47"/>
<rect x="1.800" y="-11.000" width="0.600" height="0.600" fill="#1E2A47"/>
<rect x="0.600" y="-10.400" width="0.600" height="0.600" fill="#1E2A47"/>
<rect x="1.200" y="-10.400" width="0.600" height="0.600" fill="#1E2A47"/>
<rect x="1.800" y="-10.400" width="0.600" height="0.600" fill="#1E2A47"/>
<rect x="0.600" y="-9.800" width="0.600" height="0.600" fill="#1E2A47"/>
<rect x="1.800" y="-9.800" width="0.600" height="0.600" fill="#1E2A47"/>
<rect x="0.600" y="-9.200" width="0.600" height="0.600" fill="#1E2A47"/>
<rect x="1.800" y="-9.200" width="0.600" height="0.600" fill="#1E2A47"/>
<rect x="5.400" y="-11.600" width="0.600" height="0.600" fill="#1E2A47"/>
<rect x="6.000" y="-11.600" width="0.600" height="0.600" fill="#1E2A47"/>
<rect x="5.400" y="-11.000" width="0.600" height="0.600" fill="#1E2A47"/>
<rect x="6.600" y="-11.000" width="0.600" height="0.600" fill="#1E2A47"/>
<rect x="5.400" y="-10.400" width="0.600" height="0.600" fill="#1E2A47"/>
<rect x="6.000" y="-10.400" width="0.600" height="0.600" fill="#1E2A47"/>
<rect x="5.400" y="-9.800" width="0.600" height="0.600" fill="#1E2A47"/>
<rect x="6.600" y="-9.800" width="0.600" height="0.600" fill="#1E2A47"/>
<rect x="5.400" y="-9.200" width="0.600" height="0.600" fill="#1E2A47"/>
<rect x="6.600" y="-9.200" width="0.600" height="0.600" fill="#1E2A47"/>
<rect x="7.800" y="-11.600" width="0.600" height="0.600" fill="#1E2A47"/>
<rect x="8.400" y="-11.600" width="0.600" height="0.600" fill="#1E2A47"/>
<rect x="9.000" y="-11.600" width="0.600" height="0.600" fill="#1E2A47"/>
<rect x="7.800" y="-11.000" width="0.600" height="0.600" fill="#1E2A47"/>
<rect x="7.800" y="-10.400" width="0.600" height="0.600" fill="#1E2A47"/>
<rect x="8.400" y="-10.400" width="0.600" height="0.600" fill="#1E2A47"/>
<rect x="7.800" y="-9.800" width="0.600" height="0.600" fill="#1E2A47"/>
<rect x="7.800" y="-9.200" width="0.600" height="0.600" fill="#1E2A47"/>
<rect x="8.400" y="-9.200" width="0.600" height="0.600" fill="#1E2A47"/>
<rect x="9.000" y="-9.200" width="0.600" height="0.600" fill="#1E2A47"/>
<rect x="10.800" y="-11.600" width="0.600" height="0.600" fill="#1E2A47"/>
<rect x="10.200" y="-11.000" width="0.600" height="0.600" fill="#1E2A47"/>
<rect x="11.400" y="-11.000" width="0.600" height="0.600" fill="#1E2A47"/>
<rect x="10.200" y="-10.400" width="0.600" height="0.600" fill="#1E2A47"/>
<rect x="10.800" y="-10.400" width="0.600" height="0.600" fill="#1E2A47"/>
<rect x="11.400" y="-10.400" width="0.600" height="0.600" fill="#1E2A47"/>
<rect x="10.200" y="-9.800" width="0.600" height="0.600" fill="#1E2A47"/>
<rect x="11.400" y="-9.800" width="0.600" height="0.600" fill="#1E2A47"/>
<rect x="10.200" y="-9.200" width="0.600" height="0.600" fill="#1E2A47"/>
<rect x="11.400" y="-9.200" width="0.600" height="0.600" fill="#1E2A47"/>
<rect x="12.600" y="-11.600" width="0.600" height="0.600" fill="#1E2A47"/>
<rect x="13.200" y="-11.600" width="0.600" height="0.600" fill="#1E2A47"/>
<rect x="12.600" y="-11.000" width="0.600" height="0.600" fill="#1E2A47"/>
<rect x="13.800" y="-11.000" width="0.600" height="0.600" fill="#1E2A47"/>
<rect x="12.600" y="-10.400" width="0.600" height="0.600" fill="#1E2A47"/>
<rect x="13.800" y="-10.400" width="0.600" height="0.600" fill="#1E2A47"/>
<rect x="12.600" y="-9.800" width="0.600" height="0.600" fill="#1E2A47"/>
<rect x="13.800" y="-9.800" width="0.600" height="0.600" fill="#1E2A47"/>
<rect x="12.600" y="-9.200" width="0.600" height="0.600" fill="#1E2A47"/>
<rect x="13.200" y="-9.200" width="0.600" height="0.600" fill="#1E2A47"/>
<rect x="15.000" y="-11.600" width="0.600" height="0.600" fill="#1E2A47"/>
<rect x="16.200" y="-11.600" width="0.600" height="0.600" fill="#1E2A47"/>
<rect x="15.000" y="-11.000" width="0.600" height="0.600" fill="#1E2A47"/>
<rect x="16.200" y="-11.000" width="0.600" height="0.600" fill="#1E2A47"/>
<rect x="15.600" y="-10.400" width="0.600" height="0.600" fill="#1E2A47"/>
<rect x="15.600" y="-9.800" width="0.600" height="0.600" fill="#1E2A47"/>
<rect x="15.600" y="-9.200" width="0.600" height="0.600" fill="#1E2A47"/>
<rect x="18.000" y="-11.600" width="0.600" height="0.600" fill="#1E2A47"/>
<rect x="18.000" y="-11.000" width="0.600" height="0.600" fill="#1E2A47"/>
<rect x="18.000" y="-10.400" width="0.600" height="0.600" fill="#1E2A47"/>
<rect x="18.000" y="-9.200" width="0.600" height="0.600" fill="#1E2A47"/>
</g>
</svg>
